<?xml version="1.0" encoding="UTF-8"?>
<!DOCTYPE svg PUBLIC "-//W3C//DTD SVG 1.1//EN" "http://www.w3.org/Graphics/SVG/1.1/DTD/svg11.dtd">
<svg xmlns="http://www.w3.org/2000/svg" version="1.1" width="256px" height="256px" style="shape-rendering:geometricPrecision; text-rendering:geometricPrecision; image-rendering:optimizeQuality; fill-rule:evenodd; clip-rule:evenodd" xmlns:xlink="http://www.w3.org/1999/xlink">
<g><path style="opacity:1" fill="#0000a3" d="M -0.5,-0.5 C 84.8333,-0.5 170.167,-0.5 255.5,-0.5C 255.5,84.8333 255.5,170.167 255.5,255.5C 170.167,255.5 84.8333,255.5 -0.5,255.5C -0.5,170.167 -0.5,84.8333 -0.5,-0.5 Z"/></g>
<g><path style="opacity:1" fill="#fdfdfe" d="M 171.5,90.5 C 178.5,90.5 185.5,90.5 192.5,90.5C 192.5,114.5 192.5,138.5 192.5,162.5C 185.5,162.5 178.5,162.5 171.5,162.5C 171.5,138.5 171.5,114.5 171.5,90.5 Z"/></g>
<g><path style="opacity:1" fill="#fcfcfe" d="M 54.5,107.5 C 68.578,102.805 80.7446,105.805 91,116.5C 93.412,119.99 95.2453,123.657 96.5,127.5C 96.6252,133.203 96.2919,138.87 95.5,144.5C 91.3381,154.997 83.6714,160.997 72.5,162.5C 59.5,162.5 46.5,162.5 33.5,162.5C 33.5,138.5 33.5,114.5 33.5,90.5C 40.1667,90.5 46.8333,90.5 53.5,90.5C 53.1778,96.358 53.5111,102.025 54.5,107.5 Z"/></g>
<g><path style="opacity:1" fill="#b4b2f0" d="M 54.5,107.5 C 53.5111,102.025 53.1778,96.358 53.5,90.5C 46.8333,90.5 40.1667,90.5 33.5,90.5C 33.5,114.5 33.5,138.5 33.5,162.5C 46.5,162.5 59.5,162.5 72.5,162.5C 59.3438,163.496 46.0105,163.829 32.5,163.5C 32.5,138.833 32.5,114.167 32.5,89.5C 39.8333,89.5 47.1667,89.5 54.5,89.5C 54.5,95.5 54.5,101.5 54.5,107.5 Z"/></g>
<g><path style="opacity:1" fill="#120e8e" d="M 192.5,89.5 C 194.324,108.14 195.157,127.14 195,146.5C 195.75,141.415 198.583,138.749 203.5,138.5C 195.105,143.862 193.438,150.862 198.5,159.5C 197.167,159.5 195.833,159.5 194.5,159.5C 194.714,161.144 194.38,162.644 193.5,164C 185.988,164.822 178.655,164.655 171.5,163.5C 178.687,163.825 185.687,163.491 192.5,162.5C 192.5,138.5 192.5,114.5 192.5,90.5C 192.5,90.1667 192.5,89.8333 192.5,89.5 Z"/></g>
<g><path style="opacity:1" fill="#fbfbfe" d="M 166.5,127.5 C 166.5,131.167 166.5,134.833 166.5,138.5C 164.351,151.157 157.017,159.324 144.5,163C 129.332,166.653 116.332,163.153 105.5,152.5C 101.593,145.417 99.926,137.75 100.5,129.5C 105.046,113.65 115.713,105.65 132.5,105.5C 149.21,104.838 160.544,112.171 166.5,127.5 Z"/></g>
<g><path style="opacity:1" fill="#1008a1" d="M 57.5,123.5 C 65.0442,121.942 70.8775,124.275 75,130.5C 76.5809,136.062 75.0809,140.562 70.5,144C 65.2636,145.339 59.9302,145.839 54.5,145.5C 54.5,138.5 54.5,131.5 54.5,124.5C 55.791,124.737 56.791,124.404 57.5,123.5 Z"/></g>
<g><path style="opacity:1" fill="#0804a3" d="M 125.5,142.5 C 121.197,138.661 120.53,134.328 123.5,129.5C 125.544,128.969 127.211,127.802 128.5,126C 131.562,125.259 134.562,125.425 137.5,126.5C 138.952,129.282 138.619,131.782 136.5,134C 137.328,134.915 138.328,135.581 139.5,136C 137.664,138.493 136.664,141.326 136.5,144.5C 132.633,144.758 128.966,144.092 125.5,142.5 Z"/></g>
<g><path style="opacity:1" fill="#1e129a" d="M 125.5,142.5 C 128.966,144.092 132.633,144.758 136.5,144.5C 136.664,141.326 137.664,138.493 139.5,136C 138.328,135.581 137.328,134.915 136.5,134C 138.619,131.782 138.952,129.282 137.5,126.5C 134.562,125.425 131.562,125.259 128.5,126C 127.211,127.802 125.544,128.969 123.5,129.5C 130.048,121.577 136.882,121.577 144,129.5C 146.004,142.438 140.504,147.605 127.5,145C 126.619,144.292 125.953,143.458 125.5,142.5 Z"/></g>
<g><path style="opacity:1" fill="#261e93" d="M 96.5,127.5 C 97.7899,128.058 98.6232,129.058 99,130.5C 99.3826,129.944 99.8826,129.611 100.5,129.5C 99.926,137.75 101.593,145.417 105.5,152.5C 103.478,151.493 102.145,149.826 101.5,147.5C 100.35,144.253 99.517,140.92 99,137.5C 98.3299,140.174 97.1632,142.507 95.5,144.5C 96.2919,138.87 96.6252,133.203 96.5,127.5 Z"/></g>
<g><path style="opacity:1" fill="#f8f8fd" d="M 198.5,159.5 C 193.438,150.862 195.105,143.862 203.5,138.5C 215.563,136.405 221.729,141.405 222,153.5C 219.009,162.58 212.843,165.747 203.5,163C 201.677,162.003 200.01,160.836 198.5,159.5 Z"/></g>
<g><path style="opacity:1" fill="#261a96" d="M 192.5,89.5 C 192.5,89.8333 192.5,90.1667 192.5,90.5C 185.5,90.5 178.5,90.5 171.5,90.5C 170.502,114.661 170.169,138.994 170.5,163.5C 169.67,153.341 169.17,143.008 169,132.5C 168.76,134.852 167.927,136.852 166.5,138.5C 166.5,134.833 166.5,131.167 166.5,127.5C 167.825,128.953 168.658,128.619 169,126.5C 169.5,114.171 169.667,101.838 169.5,89.5C 177.167,89.5 184.833,89.5 192.5,89.5 Z"/></g>
<g><path style="opacity:1" fill="#999af1" d="M 171.5,90.5 C 171.5,114.5 171.5,138.5 171.5,162.5C 178.5,162.5 185.5,162.5 192.5,162.5C 185.687,163.491 178.687,163.825 171.5,163.5C 171.167,163.5 170.833,163.5 170.5,163.5C 170.169,138.994 170.502,114.661 171.5,90.5 Z"/></g>
</svg>
